# xmcd
#
# Track frame offsets:
#	150
#	8050
#	20042
#	30357
#	38364
#	54400
#	67994
#	78485
#	91970
#	102371
#	114056
#	121758
#	134159
#	142258
#	153129
#	163546
#	175364
#	189213
#
# Disc length: 2744 seconds
# Revision: 1
# Processed by: cddbd v1.5.2PL0 Copyright (c) Steve Scherf et al.
# Submitted via: dBpowerAMP V12.0
#
DISCID=da0ab612
DTITLE=South Dakota’s Original Singing Cowboys - Way Out There
DYEAR=2001
DGENRE=Country
TTITLE0=Way Out There
TTITLE1=Blue Shadows
TTITLE2=Wind
TTITLE3=Texas Plains
TTITLE4=Blue Spanish Eyes
TTITLE5=Goldmine In The Sky
TTITLE6=Rose of San Antone
TTITLE7=Colorado
TTITLE8=Tumblin’ Tumbleweeds
TTITLE9=Cool Water
TTITLE10=Payday
TTITLE11=Kin to The Wind
TTITLE12=Timber Trail
TTITLE13=Boots and Saddle
TTITLE14=Ghost Riders
TTITLE15=Everlasting Hills of Oklahoma
TTITLE16=Steel Guitar Medley
TTITLE17=One Day at a Time
EXTD=
EXTT0=
EXTT1=
EXTT2=
EXTT3=
EXTT4=
EXTT5=
EXTT6=
EXTT7=
EXTT8=
EXTT9=
EXTT10=
EXTT11=
EXTT12=
EXTT13=
EXTT14=
EXTT15=
EXTT16=
EXTT17=
PLAYORDER=
